<svg xmlns="http://www.w3.org/2000/svg" version="1.1" xmlns:xlink="http://www.w3.org/1999/xlink" xmlns:svgjs="http://svgjs.dev/svgjs" width="2000" height="929" viewBox="0 0 2000 929"><g transform="matrix(1,0,0,1,-1.2121212121212466,-0.07985182060269835)"><svg viewBox="0 0 396 184" data-background-color="#1ebbd7" preserveAspectRatio="xMidYMid meet" height="929" width="2000" xmlns="http://www.w3.org/2000/svg" xmlns:xlink="http://www.w3.org/1999/xlink"><g id="tight-bounds" transform="matrix(1,0,0,1,0.2400000000000091,0.015815645845961512)"><svg viewBox="0 0 395.52 183.96836870830808" height="183.96836870830808" width="395.52"><g><svg viewBox="0 0 395.52 183.96836870830808" height="183.96836870830808" width="395.52"><g><svg viewBox="0 0 395.52 183.96836870830808" height="183.96836870830808" width="395.52"><g><svg viewBox="0 0 395.52 183.96836870830808" height="183.96836870830808" width="395.52"><g><svg viewBox="0 0 395.52 183.96836870830808" height="183.96836870830808" width="395.52"><g transform="matrix(1,0,0,1,0,0)"><svg width="395.52" viewBox="0.73 -36.04 80.50999999999999 37.46" height="183.96836870830808" data-palette-color="#010c80"><g class="undefined-text-0" data-fill-palette-color="primary" id="text-0"><path d="M10.74 1.42L10.74 1.42Q8.25 1.42 6.4 0.1 4.54-1.22 3.27-3.27 2-5.32 1.37-7.84 0.73-10.35 0.73-12.79L0.73-12.79Q0.73-15.38 1.37-18.14 2-20.9 3.32-23.17 4.64-25.44 6.69-26.88 8.74-28.32 11.57-28.32L11.57-28.32Q14.31-28.32 16.24-26.83 18.16-25.34 19.34-23.12 20.51-20.9 21-18.26 21.48-15.63 21.34-13.28L21.34-13.28Q21.19-10.69 20.53-8.06 19.87-5.42 18.6-3.32 17.33-1.22 15.38 0.1 13.43 1.42 10.74 1.42ZM11.23-20.65L11.23-20.65Q10.5-20.65 9.94-19.87 9.38-19.09 9.01-17.97 8.64-16.85 8.45-15.6 8.25-14.36 8.25-13.43L8.25-13.43Q8.25-12.26 8.47-10.89 8.69-9.52 9.08-8.37 9.47-7.23 10.03-6.47 10.6-5.71 11.33-5.71L11.33-5.71Q12.11-5.71 12.67-6.45 13.23-7.18 13.57-8.3 13.92-9.42 14.06-10.77 14.21-12.11 14.21-13.28L14.21-13.28Q14.21-14.36 14.01-15.65 13.82-16.94 13.45-18.07 13.09-19.19 12.52-19.92 11.96-20.65 11.23-20.65ZM48.14 0.63L48.14 0.63Q46.58 0.63 45.33-1.03 44.09-2.69 43.16-5 42.23-7.32 41.62-9.77 41.01-12.21 40.72-13.82L40.72-13.82Q40.33-12.84 39.67-11.43 39.01-10.01 38.16-8.45 37.3-6.88 36.33-5.3 35.35-3.71 34.3-2.44 33.25-1.17 32.2-0.39 31.15 0.39 30.17 0.39L30.17 0.39Q28.85 0.39 27.85-0.88 26.85-2.15 26.17-4.2 25.49-6.25 25.02-8.74 24.56-11.23 24.31-13.72 24.07-16.21 23.97-18.36 23.87-20.51 23.87-21.83L23.87-21.83Q23.87-23.05 24-24.17 24.12-25.29 24.48-26.17 24.85-27.05 25.56-27.56 26.27-28.08 27.44-28.08L27.44-28.08Q28.56-28.08 29.37-27.25 30.17-26.42 30.71-25.07 31.25-23.73 31.59-22.05 31.93-20.36 32.13-18.63 32.32-16.89 32.39-15.26 32.47-13.62 32.52-12.45L32.52-12.45Q32.81-13.48 33.35-14.97 33.88-16.46 34.52-18.14 35.15-19.82 35.91-21.48 36.67-23.14 37.42-24.46 38.18-25.78 38.91-26.61 39.65-27.44 40.33-27.44L40.33-27.44 40.38-27.44Q41.26-27.44 42.09-26.61 42.92-25.78 43.7-24.46 44.48-23.14 45.16-21.46 45.85-19.78 46.43-18.04 47.02-16.31 47.46-14.67 47.9-13.04 48.19-11.87L48.19-11.87Q48.24-13.28 48.34-15.06 48.44-16.85 48.7-18.65 48.97-20.46 49.44-22.17 49.9-23.88 50.58-25.22 51.27-26.56 52.27-27.37 53.27-28.17 54.59-28.17L54.59-28.17Q55.95-28.17 56.61-27.22 57.27-26.27 57.27-24.9L57.27-24.9Q57.27-23.44 56.91-21 56.54-18.55 55.91-15.7 55.27-12.84 54.42-9.94 53.56-7.03 52.54-4.69 51.51-2.34 50.39-0.85 49.27 0.63 48.14 0.63ZM69.09-29.59L69.09-29.59Q69.09-26.95 68.87-24.29 68.65-21.63 68.65-18.95L68.65-18.95Q68.65-15.48 68.87-12.01 69.09-8.54 69.09-5.03L69.09-5.03Q69.09-4.15 68.99-3.05 68.89-1.95 68.53-1.03 68.16-0.1 67.43 0.54 66.69 1.17 65.47 1.17L65.47 1.17Q64.3 1.17 63.45 0.02 62.59-1.12 62.03-2.91 61.47-4.69 61.1-6.88 60.74-9.08 60.57-11.16 60.4-13.23 60.32-14.97 60.25-16.7 60.25-17.53L60.25-17.53Q60.25-18.46 60.32-20.21 60.4-21.97 60.64-24.02 60.88-26.07 61.3-28.2 61.71-30.32 62.4-32.06 63.08-33.79 64.03-34.89 64.99-35.99 66.3-35.99L66.3-35.99Q67.38-35.99 67.94-35.28 68.5-34.57 68.75-33.57 68.99-32.57 69.04-31.47 69.09-30.37 69.09-29.59ZM80.85-34.08L80.85-34.08Q80.85-33.4 80.49-32.86 80.12-32.32 79.53-31.91 78.95-31.49 78.26-31.27 77.58-31.05 76.99-31.05L76.99-31.05Q76.02-31.05 75.29-31.54 74.55-32.03 74.55-33.06L74.55-33.06Q74.55-33.79 74.92-34.35 75.29-34.91 75.82-35.28 76.36-35.64 77.04-35.84 77.73-36.04 78.36-36.04L78.36-36.04Q79.29-36.04 80.07-35.6 80.85-35.16 80.85-34.08ZM81.24-17.48L81.24-17.48Q81.24-16.8 81.24-16.04 81.24-15.28 81.19-14.6L81.19-14.6Q81.14-13.77 81.14-12.38 81.14-10.99 81.05-9.38 80.95-7.76 80.73-6.1 80.51-4.44 80.02-3.08 79.53-1.71 78.73-0.85 77.92 0 76.7 0.05L76.7 0.05Q75.77 0.1 75.14-0.68 74.5-1.46 74.09-2.71 73.67-3.96 73.48-5.49 73.28-7.03 73.19-8.47 73.09-9.91 73.09-11.13 73.09-12.35 73.09-12.94L73.09-12.94Q73.09-13.72 73.09-15.16 73.09-16.6 73.19-18.26 73.28-19.92 73.55-21.63 73.82-23.34 74.33-24.76 74.85-26.17 75.68-27.05 76.51-27.93 77.78-27.93L77.78-27.93Q79.09-27.93 79.78-26.61 80.46-25.29 80.8-23.54 81.14-21.78 81.19-20.04 81.24-18.31 81.24-17.48Z" fill="#ffffff" data-fill-palette-color="primary"></path></g></svg></g></svg></g></svg></g></svg></g></svg></g><defs></defs></svg><rect width="395.52" height="183.96836870830808" fill="none" stroke="none" visibility="hidden"></rect></g></svg></g></svg>