<svg xmlns="http://www.w3.org/2000/svg" xmlns:xlink="http://www.w3.org/1999/xlink" version="1.1" width="256" height="256" viewBox="0 0 256 256" xml:space="preserve">

<defs>
</defs>
<g style="stroke: none; stroke-width: 0; stroke-dasharray: none; stroke-linecap: butt; stroke-linejoin: miter; stroke-miterlimit: 10; fill: none; fill-rule: nonzero; opacity: 1;" transform="translate(1.4065934065934016 1.4065934065934016) scale(2.81 2.81)" >
	<path d="M 31.463 23.648 v 42.703 c 0 1.263 1.024 2.287 2.287 2.287 h 22.5 c 1.263 0 2.287 -1.024 2.287 -2.287 V 39.34 V 23.648 c 0 -1.263 -1.024 -2.287 -2.287 -2.287 h -22.5 C 32.487 21.362 31.463 22.386 31.463 23.648 z" style="stroke: none; stroke-width: 1; stroke-dasharray: none; stroke-linecap: butt; stroke-linejoin: miter; stroke-miterlimit: 10; fill: rgb(162,230,46); fill-rule: nonzero; opacity: 1;" transform=" matrix(1 0 0 1 0 0) " stroke-linecap="round" />
	<path d="M 0 33.735 v 32.617 c 0 1.263 1.024 2.287 2.287 2.287 h 22.5 c 1.263 0 2.287 -1.024 2.287 -2.287 V 33.735 c 0 -1.263 -1.024 -2.287 -2.287 -2.287 h -22.5 C 1.024 31.448 0 32.472 0 33.735 z" style="stroke: none; stroke-width: 1; stroke-dasharray: none; stroke-linecap: butt; stroke-linejoin: miter; stroke-miterlimit: 10; fill: rgb(98,219,251); fill-rule: nonzero; opacity: 1;" transform=" matrix(1 0 0 1 0 0) " stroke-linecap="round" />
	<path d="M 62.926 43.821 v 22.53 c 0 1.263 1.024 2.287 2.287 2.287 h 22.5 c 1.263 0 2.287 -1.024 2.287 -2.287 v -22.53 c 0 -1.263 -1.024 -2.287 -2.287 -2.287 h -22.5 C 63.95 41.535 62.926 42.559 62.926 43.821 z" style="stroke: none; stroke-width: 1; stroke-dasharray: none; stroke-linecap: butt; stroke-linejoin: miter; stroke-miterlimit: 10; fill: rgb(238,97,97); fill-rule: nonzero; opacity: 1;" transform=" matrix(1 0 0 1 0 0) " stroke-linecap="round" />
	<path d="M 16.791 55.17 h -6.508 c -0.964 0 -1.746 -0.782 -1.746 -1.746 c 0 -1.771 0.67 -3.457 1.886 -4.744 l 4.154 -4.401 c 0.651 -0.69 0.619 -1.78 -0.07 -2.431 c -0.334 -0.315 -0.777 -0.485 -1.23 -0.468 c -0.459 0.013 -0.885 0.204 -1.2 0.538 l -0.524 0.555 c -0.662 0.7 -1.766 0.732 -2.468 0.07 c -0.701 -0.662 -0.732 -1.767 -0.07 -2.468 l 0.523 -0.554 c 0.955 -1.011 2.247 -1.592 3.638 -1.632 c 1.391 -0.032 2.715 0.464 3.727 1.419 c 2.089 1.972 2.185 5.277 0.213 7.367 l -4.154 4.402 c -0.175 0.185 -0.327 0.386 -0.454 0.601 h 4.284 c 0.964 0 1.746 0.782 1.746 1.746 C 18.536 54.388 17.755 55.17 16.791 55.17 z" style="stroke: none; stroke-width: 1; stroke-dasharray: none; stroke-linecap: butt; stroke-linejoin: miter; stroke-miterlimit: 10; fill: rgb(255,255,255); fill-rule: nonzero; opacity: 1;" transform=" matrix(1 0 0 1 0 0) " stroke-linecap="round" />
	<path d="M 48.199 45.36 H 45 h -3.198 c -0.995 0 -1.802 -0.807 -1.802 -1.802 c 0 -0.995 0.807 -1.802 1.802 -1.802 h 1.396 v -9.135 l -0.424 0.272 c -0.839 0.537 -1.953 0.294 -2.489 -0.545 c -0.537 -0.837 -0.293 -1.952 0.544 -2.489 l 3.198 -2.05 c 0.554 -0.355 1.258 -0.38 1.837 -0.064 c 0.578 0.316 0.937 0.922 0.937 1.581 v 12.43 h 1.397 c 0.995 0 1.802 0.807 1.802 1.802 C 50 44.553 49.193 45.36 48.199 45.36 z" style="stroke: none; stroke-width: 1; stroke-dasharray: none; stroke-linecap: butt; stroke-linejoin: miter; stroke-miterlimit: 10; fill: rgb(255,255,255); fill-rule: nonzero; opacity: 1;" transform=" matrix(1 0 0 1 0 0) " stroke-linecap="round" />
	<path d="M 81.463 58.845 c 0 3.121 -2.54 5.661 -5.661 5.661 c -1.334 0 -2.64 -0.489 -3.674 -1.375 c -0.798 -0.684 -0.89 -1.885 -0.206 -2.684 c 0.685 -0.797 1.886 -0.889 2.684 -0.206 c 0.244 0.209 0.65 0.459 1.197 0.459 c 1.023 0 1.855 -0.832 1.855 -1.855 c 0 -1.023 -0.832 -1.856 -1.855 -1.856 c -1.051 0 -1.903 -0.852 -1.903 -1.903 c 0 -1.051 0.852 -1.903 1.903 -1.903 c 1.023 0 1.855 -0.832 1.855 -1.855 c 0 -1.023 -0.832 -1.856 -1.855 -1.856 c -0.546 0 -0.952 0.25 -1.198 0.46 c -0.799 0.683 -2.001 0.59 -2.684 -0.208 c -0.683 -0.799 -0.59 -2 0.208 -2.684 c 1.036 -0.886 2.34 -1.374 3.673 -1.374 c 3.121 0 5.661 2.54 5.661 5.662 c 0 1.443 -0.547 2.757 -1.439 3.758 C 80.916 56.087 81.463 57.402 81.463 58.845 z" style="stroke: none; stroke-width: 1; stroke-dasharray: none; stroke-linecap: butt; stroke-linejoin: miter; stroke-miterlimit: 10; fill: rgb(255,255,255); fill-rule: nonzero; opacity: 1;" transform=" matrix(1 0 0 1 0 0) " stroke-linecap="round" />
</g>
</svg>